<svg xmlns="http://www.w3.org/2000/svg" width="100%" viewBox="0 0 437 437" xml:space="preserve">
  <style>
    .logo-path {
      stroke-width: 2;
      fill-opacity: 0;
      stroke-dasharray: 2500;
      stroke-dashoffset: 2500;
    }

    .red-path {
      stroke: #FB522D;
      animation: drawLine 2s ease-out forwards, fillRed 1s ease-in 1.5s forwards;
    }

    .white-path {
      stroke: #FFFDFD;
      animation: drawLine 2s ease-out 0.5s forwards, fillWhite 1s ease-in 1.5s forwards;
    }

    @keyframes drawLine {
      to { stroke-dashoffset: 0; }
    }

    @keyframes fillRed {
      to { 
        fill: #FB522D; 
        fill-opacity: 1;
        stroke-opacity: 0;
      }
    }

    @keyframes fillWhite {
      to { 
        fill: #FFFDFD; 
        fill-opacity: 1;
        stroke-opacity: 0;
      }
    }
  </style>

  <defs>
    <mask id="circleMask" maskUnits="objectBoundingBox" maskContentUnits="objectBoundingBox">
      <rect x="0" y="0" width="1" height="1" fill="black" />
      <circle cx="0.5" cy="0.5" r="0.49" fill="white" />
    </mask>
  </defs>

  <g mask="url(#circleMask)">
    <path class="logo-path red-path" d="M0.999999,249.000000 C1.000000,229.645767 1.000000,210.291550 1.399142,190.666046 C2.531541,187.132523 3.366647,183.889297 3.981140,180.604813 C7.370908,162.486404 12.573699,144.920197 20.390060,128.213470 C34.491585,98.072792 54.048904,72.083656 80.144928,51.189121 C81.977966,53.092758 83.507393,54.816917 85.142456,56.434288 C105.301285,76.375031 125.502892,96.272591 145.637024,116.238205 C161.316284,131.786209 176.845352,147.486450 192.603897,162.953232 C196.358521,166.638351 198.194168,170.349258 198.185501,175.895935 C198.134842,208.365570 198.219040,240.843674 198.943375,273.303619 C199.492294,297.901489 200.924805,322.484070 202.254013,347.057770 C202.728714,355.833374 204.204895,364.550110 204.951614,373.316925 C205.769012,382.913879 208.863876,392.816223 201.663162,401.561737 C200.788834,402.623627 200.580460,404.347382 200.353180,405.809418 C199.167297,413.437775 206.026932,419.542084 213.367767,417.457611 C220.924103,415.311920 223.682495,407.052826 218.880035,399.846283 C215.977219,395.490295 214.495255,391.125305 215.133896,385.842377 C216.589249,373.803558 218.175171,361.757690 218.965103,349.666168 C220.461273,326.763824 221.838943,303.839447 222.521729,280.902039 C223.329147,253.777740 223.344101,226.629944 223.728348,199.492691 C223.745346,198.292130 224.018127,197.095215 224.261490,195.196564 C230.890350,201.850021 236.809464,208.042465 242.997025,213.953918 C260.729797,230.895447 278.373993,247.938065 296.435364,264.524567 C309.843567,276.837860 324.030640,288.300171 337.527679,300.520508 C347.448120,309.502563 360.985962,315.244751 363.915588,330.731506 C364.860321,335.725464 370.611359,337.873505 375.554352,336.971191 C379.778412,336.200104 383.329163,331.744843 383.642273,326.822998 C383.997070,321.245483 380.880646,317.170593 374.454712,315.664032 C368.887207,314.358673 364.362122,311.870575 360.796265,307.267151 C355.831757,300.858215 350.594574,294.653381 345.320068,288.493073 C331.479431,272.328156 318.193634,255.626007 303.525208,240.245697 C277.034729,212.469528 249.735046,185.463669 222.701080,158.207748 C205.927368,141.296341 189.031204,124.506279 172.170044,107.681740 C159.886810,95.425186 147.525742,83.246338 135.282730,70.949852 C123.741196,59.357918 112.308662,47.657455 100.987923,35.685577 C112.071831,29.581654 122.783173,23.341040 133.969711,18.118282 C151.018967,10.158358 169.139069,5.574094 187.758301,2.926395 C188.580231,2.809515 189.256088,1.665545 190.000000,0.999998 C209.354233,1.000000 228.708450,1.000000 248.332764,1.398964 C249.276413,2.191284 249.905304,2.788395 250.630264,2.947383 C261.251709,5.276669 272.024445,7.045619 282.489319,9.933126 C306.910461,16.671480 328.999420,28.373022 349.452179,43.175331 C364.366730,53.969437 377.650085,66.660873 389.188995,80.918991 C402.027527,96.782951 412.612061,114.138138 420.640991,133.052246 C428.187622,150.830261 433.527008,169.122849 436.089081,188.253876 C436.176910,188.909470 437.338776,189.421219 438.000000,190.000000 C438.000000,209.354233 438.000000,228.708450 437.600861,248.333954 C436.809143,249.279205 436.213562,249.908630 436.054443,250.633835 C433.724121,261.254425 431.954254,272.026459 429.065155,282.490265 C422.322784,306.909943 410.627655,329.001160 395.821442,349.453644 C385.025085,364.367126 372.319336,377.628082 358.084473,389.196960 C342.110870,402.178955 324.571564,412.820129 305.522949,420.887512 C288.062042,428.282440 270.019531,433.430817 251.243958,436.076630 C250.421951,436.192474 249.744690,437.335480 249.000000,438.000000 C229.645767,438.000000 210.291550,438.000000 190.666321,437.600891 C189.721390,436.809021 189.092026,436.213104 188.366821,436.053986 C177.746170,433.723450 166.974838,431.951080 156.510056,429.064484 C132.087067,422.327637 110.000656,410.619690 89.543564,395.823059 C74.489136,384.934204 61.095722,372.112183 49.488777,357.699951 C36.485607,341.554047 25.821533,323.871429 17.782160,304.602325 C10.599072,287.385590 5.580115,269.676544 2.922716,251.245300 C2.803956,250.421585 1.664194,249.745071 0.999999,249.000000 z" />
    
    <path class="logo-path white-path" d="M80.144928,51.189125 C86.634270,45.974724 93.378151,40.989422 100.475105,36.004429 C112.308662,47.657455 123.741196,59.357918 135.282730,70.949852 C147.525742,83.246338 159.886810,95.425186 172.170044,107.681740 C189.031204,124.506279 205.927368,141.296341 222.701080,158.207748 C249.735046,185.463669 277.034729,212.469528 303.525208,240.245697 C318.193634,255.626007 331.479431,272.328156 345.320068,288.493073 C350.594574,294.653381 355.831757,300.858215 360.796265,307.267151 C364.362122,311.870575 368.887207,314.358673 374.454712,315.664032 C380.880646,317.170593 383.997070,321.245483 383.642273,326.822998 C383.329163,331.744843 379.778412,336.200104 375.554352,336.971191 C370.611359,337.873505 364.860321,335.725464 363.915588,330.731506 C360.985962,315.244751 347.448120,309.502563 337.527679,300.520508 C324.030640,288.300171 309.843567,276.837860 296.435364,264.524567 C278.373993,247.938065 260.729797,230.895447 242.997025,213.953918 C236.809464,208.042465 230.890350,201.850021 224.261490,195.196564 C224.018127,197.095215 223.745346,198.292130 223.728348,199.492691 C223.344101,226.629944 223.329147,253.777740 222.521729,280.902039 C221.838943,303.839447 220.461273,326.763824 218.965103,349.666168 C218.175171,361.757690 216.589249,373.803558 215.133896,385.842377 C214.495255,391.125305 215.977219,395.490295 218.880035,399.846283 C223.682495,407.052826 220.924103,415.311920 213.367767,417.457611 C206.026932,419.542084 199.167297,413.437775 200.353180,405.809418 C200.580460,404.347382 200.788834,402.623627 201.663162,401.561737 C208.863876,392.816223 205.769012,382.913879 204.951614,373.316925 C204.204895,364.550110 202.728714,355.833374 202.254013,347.057770 C200.924805,322.484070 199.492294,297.901489 198.943375,273.303619 C198.219040,240.843674 198.134842,208.365570 198.185501,175.895935 C198.194168,170.349258 196.358521,166.638351 192.603897,162.953232 C176.845352,147.486450 161.316284,131.786209 145.637024,116.238205 C125.502892,96.272591 105.301285,76.375031 85.142456,56.434288 C83.507393,54.816917 81.977966,53.092758 80.144928,51.189125 z" />
  </g>
</svg>