<svg
  width="200px"
  height="200px"
  viewBox="0 0 512 512"
  xmlns="http://www.w3.org/2000/svg"
  transform="matrix(-1, 0, 0, 1, 0, 0)"
>

  <defs>
    <linearGradient id="cloudGradient" x1="0%" y1="0%" x2="0%" y2="100%">
      <stop offset="0%" stop-color="#ff8a3d"/>
      <stop offset="100%" stop-color="#e04800"/>
    </linearGradient>

    <linearGradient id="highlight" x1="0%" y1="0%" x2="0%" y2="100%">
      <stop offset="0%" stop-color="rgba(255,255,255,0.6)"/>
      <stop offset="100%" stop-color="rgba(255,255,255,0)"/>
    </linearGradient>
  </defs>

  
  <g>

    
    <animateTransform
      attributeName="transform"
      type="translate"
      dur="6s"
      repeatCount="indefinite"
      calcMode="spline"
      keyTimes="0; 0.5; 1"
      keySplines="0.4 0 0.6 1; 0.4 0 0.6 1"
      values="0 0; 0 -12; 0 0"
    />

    
    <animateTransform
      attributeName="transform"
      type="translate"
      dur="9s"
      repeatCount="indefinite"
      additive="sum"
      calcMode="spline"
      keyTimes="0; 0.5; 1"
      keySplines="0.4 0 0.6 1; 0.4 0 0.6 1"
      values="0 0; 4 0; 0 0"
    />

    
    <path
      d="M421.537,405.43c43.564,0,78.879-35.316,78.879-78.88
         c0-37.422-26.069-68.737-61.032-76.827
         C438.669,170.541,374.27,106.57,294.92,106.57
         c-54.478,0-101.905,30.156-126.522,74.681
         c-7.49-3.241-15.746-5.046-24.425-5.046
         c-31.268,0-57.074,23.316-61.025,53.506
         c-40.687,8.068-71.364,43.949-71.364,87.004
         c0,48.996,39.718,88.714,88.713,88.714
         C113.943,405.43,412.187,405.43,421.537,405.43z"
      fill="url(#cloudGradient)"
      filter="url(#shadow)"
    />

    
    <path
      d="M421.537,405.43c43.564,0,78.879-35.316,78.879-78.88
         c0-37.422-26.069-68.737-61.032-76.827
         C438.669,170.541,374.27,106.57,294.92,106.57
         c-54.478,0-101.905,30.156-126.522,74.681"
      fill="url(#highlight)"
      opacity="0.35"
    />

    
    <path
      d="M421.537,405.43c43.564,0,78.879-35.316,78.879-78.88
         c0-37.422-26.069-68.737-61.032-76.827
         C438.669,170.541,374.27,106.57,294.92,106.57
         c-54.478,0-101.905,30.156-126.522,74.681
         c-7.49-3.241-15.746-5.046-24.425-5.046
         c-31.268,0-57.074,23.316-61.025,53.506
         c-40.687,8.068-71.364,43.949-71.364,87.004
         c0,48.996,39.718,88.714,88.713,88.714
         C113.943,405.43,412.187,405.43,421.537,405.43z"
      fill="none"
      stroke="#ffffff"
      stroke-width="2"
      stroke-linecap="round"
      stroke-linejoin="round"
      opacity="0.1"
    />

  </g>
</svg>
